<?xml version="1.0" encoding="UTF-8"?>
<svg width="800px" height="600px" viewBox="0 0 800 600" xmlns="http://www.w3.org/2000/svg">
  <rect width="800" height="600" fill="#FFFFFF"/>
  
  <!-- App Header -->
  <rect width="800" height="60" fill="#111827"/>
  <circle cx="40" cy="30" r="10" fill="#FF6B6B"/>
  <circle cx="70" cy="30" r="10" fill="#FFD93D"/>
  <circle cx="100" cy="30" r="10" fill="#6BCB77"/>
  
  <!-- Sidebar -->
  <rect x="0" y="60" width="200" height="540" fill="#F9FAFB"/>
  
  <!-- Content Area -->
  <rect x="200" y="60" width="600" height="540" fill="#FFFFFF"/>
  
  <!-- Nav Items -->
  <rect x="20" y="100" width="160" height="40" rx="5" fill="#EEF2FF"/>
  <rect x="20" y="150" width="160" height="40" rx="5" fill="#F3F4F6"/>
  <rect x="20" y="200" width="160" height="40" rx="5" fill="#F3F4F6"/>
  <rect x="20" y="250" width="160" height="40" rx="5" fill="#F3F4F6"/>
  
  <!-- Chat UI -->
  <rect x="240" y="100" width="520" height="60" rx="10" fill="#F3F4F6"/>
  <rect x="240" y="180" width="360" height="80" rx="10" fill="#EEF2FF"/>
  <rect x="400" y="280" width="360" height="80" rx="10" fill="#F3F4F6"/>
  <rect x="240" y="380" width="360" height="80" rx="10" fill="#EEF2FF"/>
  
  <!-- Input Area -->
  <rect x="240" y="500" width="520" height="60" rx="10" fill="#F9FAFB" stroke="#E5E7EB" stroke-width="2"/>
</svg> 