<?xml version="1.0" encoding="UTF-8"?>
<svg width="100px" height="100px" viewBox="0 0 100 100" xmlns="http://www.w3.org/2000/svg">
  <g>
    <path fill="#4285F4" d="M50.6,35.7 C53,35.7 55.1,36.5 56.8,38.1 L64.8,30.1 C61,26.6 56.2,24.6 50.6,24.6 C42.1,24.6 34.9,29.6 31.9,36.7 L41.1,43.8 C42.6,39.2 46.3,35.7 50.6,35.7"/>
    <path fill="#34A853" d="M69.1,47.7 C69.1,46.1 69,44.5 68.6,43 L50.6,43 L50.6,53.6 L61,53.6 C60.5,56.8 58.3,59.4 55.1,61 L64.1,68 C68.9,63.6 71.4,56.6 69.1,47.7"/>
    <path fill="#FBBC05" d="M41.2,56.2 C40.6,54.8 40.3,53.3 40.3,51.8 C40.3,50.2 40.6,48.7 41.1,47.3 L31.9,40.2 C30.1,43.6 29,47.6 29,51.8 C29,56 30.1,60 31.9,63.4 L41.2,56.2"/>
    <path fill="#EA4335" d="M50.6,69 C56.2,69 61.1,67.1 64.8,63.5 L55.8,56.5 C53.9,57.8 51.6,58.5 49.3,58.5 C44.9,58.5 41.2,55 39.8,50.4 L30.5,57.5 C33.5,64.7 41.5,69 50.6,69"/>
  </g>
</svg> 