<?xml version="1.0" encoding="UTF-8"?>
<svg width="60px" height="60px" viewBox="0 0 60 60" xmlns="http://www.w3.org/2000/svg">
  <path fill="#000000" opacity="0.3" d="M30,5 C30,5 35,15 35,30 C35,45 30,55 30,55 C30,55 25,45 25,30 C25,15 30,5 30,5 Z" transform="translate(30, 30) rotate(30) translate(-30, -30)"/>
  <path fill="#000000" opacity="0.3" d="M30,5 C30,5 35,15 35,30 C35,45 30,55 30,55 C30,55 25,45 25,30 C25,15 30,5 30,5 Z" transform="translate(30, 30) rotate(60) translate(-30, -30)"/>
  <path fill="#000000" opacity="0.3" d="M30,5 C30,5 35,15 35,30 C35,45 30,55 30,55 C30,55 25,45 25,30 C25,15 30,5 30,5 Z" transform="translate(30, 30) rotate(90) translate(-30, -30)"/>
  <path fill="#000000" opacity="0.3" d="M30,5 C30,5 35,15 35,30 C35,45 30,55 30,55 C30,55 25,45 25,30 C25,15 30,5 30,5 Z" transform="translate(30, 30) rotate(120) translate(-30, -30)"/>
  <path fill="#000000" opacity="0.3" d="M30,5 C30,5 35,15 35,30 C35,45 30,55 30,55 C30,55 25,45 25,30 C25,15 30,5 30,5 Z" transform="translate(30, 30) rotate(150) translate(-30, -30)"/>
</svg> 